<svg width="1024" height="1024" viewBox="0 0 1024 1024" fill="none" xmlns="http://www.w3.org/2000/svg">
<g clip-path="url(#clip0_1_2)">
<rect width="1024" height="1024" fill="white"/>
<path d="M822.528 488.458C822.285 487.237 821.745 486.095 820.956 485.132C820.166 484.17 819.152 483.416 818.002 482.939L511.386 354.396C509.974 353.797 508.414 353.64 506.912 353.946C505.409 354.251 504.034 355.004 502.968 356.106L213.279 652.78C210.729 655.391 211.016 658.442 211.261 659.63C211.507 660.818 212.429 663.736 215.788 665.149L266.097 686.244L292.741 697.416L522.404 793.702C523.816 794.298 525.375 794.454 526.877 794.149C528.379 793.844 529.754 793.092 530.821 791.992L741.059 576.686L761.242 556.022L820.521 495.309C821.394 494.421 822.034 493.331 822.384 492.135C822.735 490.94 822.784 489.677 822.528 488.458Z" fill="#333333"/>
<path d="M767.693 587.858L550.031 810.762C545.212 815.733 539.001 819.13 532.215 820.506C525.429 821.883 518.386 821.174 512.01 818.473L272.558 718.08L245.914 706.908L227.052 699.003L213.371 693.269C209.193 691.517 204.831 687.841 200.796 691.917C199.004 693.729 198.134 696.238 197.499 698.706C195.277 707.379 195.727 716.861 196.076 725.75C196.444 735.232 197.806 744.673 200.038 753.9C201.38 759.439 203.008 764.908 204.902 770.284C206.725 775.455 208.66 780.831 211.579 785.49C213.289 788.214 215.665 791.306 218.726 792.443C219.423 792.699 220.109 792.965 220.795 793.252L224.993 795.013L236.739 799.939L252.396 806.502L271.329 814.438L292.895 823.48L316.447 833.352L341.34 843.786L366.94 854.518L392.591 865.27L417.649 875.776L441.477 885.76L463.421 894.956C479.456 901.688 495.495 908.408 511.539 915.118L519.526 918.467L522.404 919.675C523.816 920.272 525.375 920.429 526.877 920.123C528.38 919.818 529.754 919.066 530.821 917.965L799.631 642.683V555.162L787.886 567.183L767.693 587.858Z" fill="#E0E0E0"/>
<path d="M839.731 514.079C843.666 510.055 846.554 505.129 848.145 499.731C849.736 494.333 849.979 488.627 848.855 483.113C847.739 477.599 845.29 472.441 841.722 468.091C838.153 463.741 833.575 460.331 828.385 458.158L521.779 329.615C515.403 326.919 508.361 326.212 501.576 327.588C494.791 328.964 488.58 332.359 483.758 337.326L479.447 341.74L459.428 362.24L426.824 395.633L385.782 437.668L340.449 484.096L294.973 530.668L253.512 573.123L220.211 607.222C210.77 616.888 201.318 625.531 193.72 636.948C188.488 644.803 185.272 652.954 182.016 661.77C179.482 668.611 177.358 675.597 175.657 682.691C173.48 691.763 172.059 701 171.407 710.308C170.127 728.934 172.114 747.684 176.957 765.706C180.818 780.052 185.743 794.747 195.277 806.4C199.813 811.95 204.646 816.108 211.323 818.432C213.146 819.067 214.917 819.937 216.699 820.685L252.078 835.523L303.483 857.078L362.629 881.879L421.233 906.455L471.02 927.324L503.706 941.025L512.02 944.507C518.397 947.202 525.439 947.908 532.224 946.532C539.008 945.156 545.219 941.762 550.042 936.796L839.741 640.113C843.671 636.088 846.556 631.163 848.147 625.768C849.737 620.373 849.984 614.671 848.867 609.158C847.749 603.646 845.3 598.49 841.734 594.14C838.168 589.791 833.592 586.379 828.406 584.202L826.501 583.403V527.677L839.731 514.079ZM799.621 572.109V642.714L530.811 917.996C529.744 919.096 528.369 919.849 526.867 920.154C525.365 920.459 523.805 920.303 522.394 919.706L519.516 918.497L511.529 915.149L499.087 909.937L482.836 903.127L463.411 894.986L441.467 885.791L417.638 875.807L392.581 865.3L366.93 854.548L341.33 843.817L316.436 833.382L292.884 823.511L271.319 814.469L252.385 806.533L236.728 799.969L224.983 795.044L220.785 793.283C220.101 792.998 219.411 792.728 218.716 792.474C215.644 791.337 213.268 788.244 211.569 785.521C208.65 780.861 206.715 775.475 204.892 770.314C202.991 764.94 201.367 759.471 200.028 753.93C197.779 744.701 196.452 735.272 196.065 725.78C195.717 716.892 195.267 707.41 197.489 698.737C198.124 696.269 198.994 693.76 200.786 691.947C204.81 687.872 209.172 691.538 213.361 693.299L227.041 699.034L245.903 706.939L272.548 718.111L512 818.504C518.377 821.199 525.418 821.905 532.203 820.529C538.988 819.153 545.198 815.759 550.021 810.793L767.693 587.858L787.876 567.194L799.621 555.172V572.109ZM820.511 495.309L761.231 556.022L741.048 576.686L530.811 791.992C529.743 793.092 528.369 793.844 526.867 794.149C525.365 794.454 523.806 794.298 522.394 793.702L292.731 697.416L266.086 686.244L215.777 665.149C213.928 664.383 212.457 662.915 211.69 661.066C210.922 659.217 210.919 657.139 211.681 655.288L212.111 654.408C212.422 653.816 212.812 653.268 213.268 652.78L502.968 356.106C504.033 355.003 505.408 354.249 506.911 353.943C508.414 353.638 509.974 353.796 511.386 354.396L818.002 482.949C819.152 483.426 820.166 484.18 820.956 485.142C821.745 486.105 822.285 487.247 822.528 488.468C822.783 489.687 822.733 490.949 822.381 492.143C822.029 493.336 821.386 494.424 820.511 495.309Z" fill="black"/>
<path d="M461.128 586.957L442.481 539.126L367.903 548.618C361.267 549.468 357.294 544.676 361.257 540.611L553.871 343.183L667.73 390.011L475.116 587.438C471.153 591.503 462.787 591.217 461.128 586.957Z" fill="#C33737"/>
<path d="M825.948 363.418C825.705 362.197 825.165 361.054 824.376 360.092C823.586 359.129 822.572 358.376 821.422 357.898L514.806 229.345C513.394 228.746 511.834 228.589 510.332 228.895C508.829 229.2 507.454 229.953 506.388 231.055L216.699 527.729C214.149 530.34 214.436 533.391 214.682 534.579C214.927 535.767 215.849 538.685 219.208 540.099L269.517 561.193L296.161 572.365L525.824 668.651C527.236 669.247 528.795 669.403 530.297 669.098C531.799 668.793 533.174 668.041 534.241 666.941L744.479 451.635L764.662 430.971L823.941 370.258C824.811 369.37 825.449 368.281 825.799 367.088C826.149 365.896 826.2 364.635 825.948 363.418Z" fill="#333333"/>
<path d="M771.113 462.807L553.451 685.711C548.632 690.683 542.421 694.079 535.635 695.456C528.849 696.832 521.806 696.123 515.43 693.422L275.978 593.029L249.334 581.857L230.472 573.952L216.791 568.218C212.613 566.467 208.251 562.79 204.216 566.866C202.424 568.678 201.554 571.187 200.919 573.655C198.697 582.328 199.148 591.811 199.496 600.699C199.864 610.181 201.226 619.622 203.459 628.849C204.8 634.388 206.428 639.857 208.323 645.233C210.145 650.404 212.081 655.78 214.999 660.439C216.709 663.163 219.085 666.255 222.147 667.392C222.843 667.648 223.529 667.914 224.215 668.201L228.413 669.962L240.159 674.888L255.816 681.451L274.749 689.388L296.315 698.429L319.867 708.301L344.76 718.735L370.36 729.467L396.012 740.219L421.069 750.725L444.897 760.709L466.842 769.905C482.876 776.637 498.915 783.358 514.959 790.067L522.947 793.416L525.824 794.624C527.236 795.221 528.795 795.378 530.297 795.073C531.8 794.767 533.174 794.015 534.241 792.914L803.051 517.632V430.08L791.306 442.102L771.113 462.807Z" fill="#E0E0E0"/>
<path d="M843.151 389.038C847.086 385.014 849.975 380.088 851.565 374.69C853.156 369.292 853.4 363.586 852.275 358.072C851.159 352.558 848.71 347.401 845.142 343.051C841.574 338.701 836.995 335.29 831.806 333.117L525.189 204.575C518.813 201.878 511.771 201.172 504.986 202.548C498.201 203.924 491.99 207.318 487.168 212.285L482.857 216.699L462.838 237.199L430.234 270.592L389.192 312.627L343.859 359.055L298.383 405.627L256.922 448.082L223.621 482.181C214.18 491.848 204.728 500.49 197.13 511.908C191.898 519.762 188.682 527.913 185.426 536.73C182.892 543.57 180.768 550.556 179.067 557.65C176.89 566.722 175.468 575.96 174.817 585.267C173.537 603.894 175.524 622.643 180.367 640.666C184.228 655.012 189.153 669.706 198.687 681.359C203.223 686.909 208.056 691.067 214.733 693.391C216.556 694.026 218.327 694.897 220.109 695.644L255.488 710.482L306.893 732.037L366.039 756.838L424.643 781.414L474.429 802.283L507.116 815.985L515.43 819.466C521.807 822.161 528.849 822.867 535.634 821.491C542.418 820.115 548.629 816.722 553.452 811.756L843.151 515.072C847.081 511.047 849.966 506.123 851.557 500.728C853.147 495.332 853.394 489.63 852.277 484.118C851.159 478.605 848.71 473.449 845.144 469.1C841.578 464.75 837.002 461.338 831.816 459.162L829.911 458.363V402.637L843.151 389.038ZM803.031 447.068V517.673L534.231 792.955C533.164 794.056 531.79 794.808 530.287 795.113C528.785 795.419 527.226 795.262 525.814 794.665L522.936 793.457L514.949 790.108L502.508 784.896L486.257 778.086L466.831 769.946L444.887 760.75L421.059 750.766L396.001 740.26L370.35 729.508L344.75 718.776L319.857 708.342L296.305 698.47L274.739 689.428L255.805 681.492L240.149 674.929L228.403 670.003L224.205 668.242C223.521 667.957 222.832 667.688 222.136 667.433C219.064 666.296 216.689 663.204 214.989 660.48C212.07 655.821 210.135 650.435 208.312 645.274C206.411 639.899 204.787 634.431 203.448 628.89C201.199 619.661 199.872 610.231 199.485 600.74C199.137 591.851 198.687 582.369 200.909 573.696C201.544 571.228 202.414 568.719 204.206 566.907C208.23 562.831 212.593 566.497 216.781 568.259L230.461 573.993L249.324 581.898L275.968 593.07L515.42 693.463C521.797 696.158 528.839 696.864 535.623 695.488C542.408 694.112 548.619 690.719 553.441 685.752L771.103 462.848L791.286 442.184L803.031 430.162V447.068ZM823.931 370.258L764.652 430.971L744.469 451.635L534.231 666.941C533.164 668.041 531.789 668.793 530.287 669.098C528.785 669.403 527.226 669.247 525.814 668.651L296.151 572.365L269.507 561.193L219.197 540.099C217.348 539.333 215.878 537.864 215.11 536.015C214.342 534.166 214.339 532.088 215.101 530.237L215.532 529.357C215.843 528.765 216.232 528.217 216.689 527.729L506.389 231.055C507.454 229.952 508.829 229.198 510.331 228.893C511.834 228.587 513.395 228.745 514.806 229.345L821.422 357.898C822.572 358.376 823.586 359.129 824.376 360.092C825.165 361.054 825.705 362.197 825.948 363.418C826.201 364.636 826.149 365.897 825.797 367.091C825.445 368.284 824.804 369.372 823.931 370.258Z" fill="black"/>
<path d="M464.538 461.916L445.891 414.085L371.313 423.578C364.677 424.428 360.704 419.635 364.667 415.57L557.281 218.143L671.14 264.97L478.525 462.397C474.563 466.452 466.197 466.166 464.538 461.916Z" fill="#C33737"/>
<path d="M822.528 238.356C822.285 237.135 821.745 235.993 820.956 235.031C820.166 234.068 819.152 233.315 818.002 232.837L511.386 104.284C509.974 103.685 508.414 103.528 506.912 103.834C505.409 104.139 504.034 104.892 502.968 105.994L213.279 402.668C212.403 403.554 211.76 404.644 211.408 405.839C211.056 407.034 211.006 408.298 211.261 409.518C211.504 410.739 212.044 411.881 212.834 412.844C213.623 413.807 214.638 414.56 215.788 415.037L266.097 436.132L292.741 447.304L522.404 543.59C523.816 544.186 525.375 544.342 526.877 544.037C528.379 543.732 529.754 542.98 530.821 541.88L741.059 326.574L761.242 305.91L820.521 245.197C821.394 244.311 822.034 243.222 822.384 242.029C822.735 240.835 822.784 239.574 822.528 238.356Z" fill="#333333"/>
<path d="M767.693 337.746L550.031 560.65C545.212 565.621 539.001 569.018 532.215 570.394C525.429 571.771 518.386 571.062 512.01 568.361L272.558 467.968L245.914 456.796L227.052 448.891L213.371 443.156C209.193 441.405 204.831 437.729 200.796 441.805C199.004 443.617 198.134 446.126 197.499 448.594C195.277 457.267 195.727 466.749 196.076 475.638C196.444 485.12 197.806 494.561 200.038 503.788C201.38 509.327 203.008 514.796 204.902 520.172C206.725 525.343 208.66 530.719 211.579 535.378C213.289 538.102 215.665 541.194 218.726 542.331C219.423 542.587 220.109 542.853 220.795 543.14L224.993 544.901L236.739 549.827L252.396 556.39L271.329 564.326L292.895 573.368L316.447 583.24L341.34 593.674L366.94 604.406L392.591 615.158L417.649 625.664L441.477 635.648L463.421 644.843C479.456 651.576 495.495 658.296 511.539 665.006L519.526 668.355L522.404 669.563C523.816 670.16 525.375 670.317 526.877 670.011C528.38 669.706 529.754 668.954 530.821 667.853L799.631 392.571V305.019L787.886 317.041L767.693 337.746Z" fill="#E0E0E0"/>
<path d="M839.731 263.977C843.666 259.953 846.554 255.027 848.145 249.629C849.736 244.231 849.979 238.525 848.855 233.011C847.739 227.497 845.29 222.34 841.722 217.99C838.153 213.64 833.575 210.229 828.385 208.056L521.779 79.5136C515.403 76.8171 508.361 76.1105 501.576 77.4865C494.791 78.8625 488.58 82.2568 483.758 87.2243L479.447 91.6378L459.428 112.138L426.824 145.531L385.782 187.566L340.449 233.994L294.973 280.566L253.512 323.021L220.211 357.12C210.77 366.787 201.318 375.429 193.72 386.847C188.488 394.701 185.272 402.852 182.016 411.668C179.482 418.509 177.358 425.495 175.657 432.589C173.48 441.661 172.059 450.899 171.407 460.206C170.127 478.833 172.114 497.582 176.957 515.605C180.818 529.951 185.743 544.645 195.277 556.298C199.813 561.848 204.646 566.006 211.323 568.33C213.146 568.965 214.917 569.836 216.699 570.583L252.078 585.421L303.483 606.976L362.629 631.777L421.233 656.353L471.02 677.222L503.706 690.924L512.02 694.405C518.397 697.1 525.439 697.806 532.224 696.43C539.008 695.054 545.219 691.661 550.042 686.694L839.741 390.011C843.671 385.986 846.556 381.062 848.147 375.666C849.737 370.271 849.984 364.569 848.867 359.056C847.749 353.544 845.3 348.388 841.734 344.038C838.168 339.689 833.592 336.277 828.406 334.1L826.501 333.302V277.576L839.731 263.977ZM799.621 322.007V392.612L530.811 667.894C529.744 668.995 528.369 669.747 526.867 670.052C525.365 670.358 523.805 670.201 522.394 669.604L519.516 668.396L511.529 665.047L499.087 659.835L482.836 653.025L463.411 644.884L441.467 635.689L417.638 625.705L392.581 615.199L366.93 604.447L341.33 593.715L316.436 583.281L292.884 573.409L271.319 564.367L252.385 556.431L236.728 549.868L224.983 544.942L220.785 543.181C220.101 542.896 219.411 542.626 218.716 542.372C215.644 541.235 213.268 538.143 211.569 535.419C208.65 530.76 206.715 525.373 204.892 520.212C202.991 514.838 201.367 509.37 200.028 503.828C197.779 494.599 196.452 485.17 196.065 475.679C195.717 466.79 195.267 457.308 197.489 448.635C198.124 446.167 198.994 443.658 200.786 441.846C204.81 437.77 209.172 441.436 213.361 443.197L227.041 448.932L245.903 456.837L272.548 468.009L512 568.402C518.377 571.097 525.418 571.803 532.203 570.427C538.988 569.051 545.198 565.658 550.021 560.691L767.693 337.746L787.876 317.082L799.621 305.06V322.007ZM820.511 245.197L761.231 305.91L741.048 326.574L530.811 541.88C529.743 542.98 528.369 543.732 526.867 544.037C525.365 544.342 523.806 544.186 522.394 543.59L292.731 447.304L266.086 436.132L215.777 415.037C213.928 414.272 212.457 412.803 211.69 410.954C210.922 409.105 210.919 407.027 211.681 405.176L212.111 404.296C212.422 403.704 212.812 403.156 213.268 402.668L502.968 105.994C504.033 104.891 505.408 104.137 506.911 103.831C508.414 103.526 509.974 103.684 511.386 104.284L818.002 232.837C819.152 233.315 820.166 234.068 820.956 235.031C821.745 235.993 822.285 237.135 822.528 238.356C822.783 239.575 822.733 240.837 822.381 242.031C822.029 243.224 821.386 244.312 820.511 245.197Z" fill="black"/>
<path d="M651.919 286.761L582.318 257.874L633.651 201.206L596.306 185.702L544.973 242.371L475.382 213.473L447.836 243.886L517.437 272.773L378.46 426.199L415.805 441.702L554.783 288.276L624.374 317.174L651.919 286.761Z" fill="#F8B26A"/>
</g>
<defs>
<clipPath id="clip0_1_2">
<rect width="1024" height="1024" fill="white"/>
</clipPath>
</defs>
</svg>
